<svg xmlns="http://www.w3.org/2000/svg" width="32" height="32" fill="none"><path fill="#EEF5F6" d="M15 32h2V21.027l4.199 10.138 1.848-.766-4.2-10.137 7.76 7.759 1.414-1.415-7.759-7.758L30.4 23.047l.766-1.848L21.027 17H32v-2H21.027l10.138-4.199-.766-1.848-10.137 4.2 7.759-7.76-1.414-1.414-7.76 7.759 4.2-10.137-1.848-.766L17 10.973V0h-2v10.973L10.8.835l-1.847.766 4.2 10.137-7.76-7.759L3.98 5.393l7.76 7.76L1.6 8.952.834 10.8 10.972 15H0v2h10.973L.835 21.2l.766 1.847 10.137-4.2-7.759 7.76 1.414 1.414 7.76-7.759-4.2 10.137 1.848.766L15 21.027V32z"/></svg>